<svg xmlns="http://www.w3.org/2000/svg" viewBox="0 0 410 404"><defs><linearGradient id="a" x1="-.08" x2=".58" y1=".09" y2=".87"><stop offset="0" stop-color="#41d1ff"></stop><stop offset="1" stop-color="#bd34fe"></stop></linearGradient><linearGradient id="b" x1=".26" x2=".76" y1="-.05" y2=".8"><stop offset="0" stop-color="#ffea83"></stop><stop offset=".08" stop-color="#ffdd35"></stop><stop offset="1" stop-color="#ffa800"></stop></linearGradient></defs><path fill="url(#a)" d="M399.91 70.42 219.19 395.25c-3.85 6.87-13.54 6.87-17.4 0L20.09 70.42c-4.14-7.38 2.48-16.19 10.63-14.37l178.19 40.26a8.74 8.74 0 0 0 3.98 0l178.19-40.26c8.15-1.82 14.77 7 10.83 14.37Z"></path><path fill="url(#b)" d="M286.48 0h-55.27c-5.13 0-9.4 3.83-9.95 8.93l-10.6 98.74c-.61 5.63 3.83 10.5 9.49 10.5h26.71c5.13 0 9.4-3.83 9.95-8.93l2.21-20.58c.61-5.63 3.83-10.5 9.49-10.5h18.36c18.57 0 34.33 13.42 37.36 31.75a38.18 38.18 0 0 1-28.59 43.73c-5.3 1.33-9.03 6.13-9.03 11.6v11.08c0 6.63 5.8 11.78 12.37 11.01 33.7-3.93 59.81-32.55 59.81-67.4C368.82 30.22 331.58 0 286.48 0Z"></path></svg>
